<mxfile host="65bd71144e">
    <diagram id="fHktv95MXKVy7kA3AV2q" name="第 1 页">
        <mxGraphModel dx="1100" dy="624" grid="1" gridSize="10" guides="1" tooltips="1" connect="1" arrows="1" fold="1" page="1" pageScale="1" pageWidth="1169" pageHeight="827" math="0" shadow="0">
            <root>
                <mxCell id="0"/>
                <mxCell id="1" parent="0"/>
                <mxCell id="2" value="Loss Function" style="rounded=1;whiteSpace=wrap;html=1;fillColor=#F4F4F4;strokeColor=#36393d;fontColor=#030202;fontSize=24;" vertex="1" parent="1">
                    <mxGeometry x="380" y="290" width="180" height="80" as="geometry"/>
                </mxCell>
            </root>
        </mxGraphModel>
    </diagram>
</mxfile>